<?xml version="1.0" standalone="no"?>
<!DOCTYPE svg PUBLIC "-//W3C//DTD SVG 20010904//EN"
 "http://www.w3.org/TR/2001/REC-SVG-20010904/DTD/svg10.dtd">
<svg version="1.0" xmlns="http://www.w3.org/2000/svg"
 width="110.000000pt" height="110.000000pt" viewBox="0 0 110.000000 110.000000"
 preserveAspectRatio="xMidYMid meet">
<metadata>
Created by potrace 1.14, written by Peter Selinger 2001-2017
</metadata>
<g transform="translate(0.000000,110.000000) scale(0.100000,-0.100000)"
fill="#000000" stroke="none">
<path d="M650 1061 c-13 -14 -13 -18 2 -33 15 -15 17 -15 32 1 15 16 15 19 -1
33 -16 13 -20 13 -33 -1z"/>
<path d="M533 964 l-22 -24 22 -24 23 -24 23 24 23 24 -24 24 -24 24 -21 -24z"/>
<path d="M376 905 c-79 -48 -135 -132 -166 -249 -14 -54 -18 -61 -48 -68 -20
-6 -32 -15 -32 -26 0 -15 13 -17 122 -15 68 1 133 2 146 2 31 1 27 26 -7 41
-28 11 -28 13 -19 48 15 54 35 89 70 122 38 36 26 39 -24 5 -36 -24 -88 -111
-88 -147 0 -10 -7 -18 -16 -18 -39 0 33 167 97 225 22 20 39 38 37 40 -1 2
-23 -10 -48 -27 -58 -38 -94 -89 -121 -172 -25 -75 -44 -88 -34 -23 15 94 91
220 165 270 37 26 10 20 -34 -8z"/>
<path d="M696 911 c37 -23 94 -91 122 -146 23 -47 52 -151 44 -159 -13 -13
-20 -3 -31 40 -24 94 -75 165 -152 208 -32 18 -31 16 13 -28 51 -51 95 -131
105 -191 8 -53 -16 -43 -33 13 -15 53 -56 107 -94 127 -42 21 -46 19 -13 -9
30 -25 71 -99 79 -141 3 -20 -1 -27 -20 -35 -31 -12 -41 -29 -22 -36 14 -5
179 -9 257 -5 39 2 32 29 -11 41 -34 9 -37 13 -48 67 -14 67 -52 146 -90 187
-29 31 -110 86 -126 86 -6 0 3 -9 20 -19z"/>
<path d="M331 471 c-6 -11 -11 -75 -11 -142 0 -96 -3 -120 -12 -111 -7 7 -13
51 -14 114 -1 57 -2 105 -3 107 0 2 -8 -2 -16 -9 -11 -9 -15 -34 -15 -97 0
-63 -3 -84 -12 -80 -8 2 -14 26 -14 63 -2 79 -1 76 -23 65 -13 -7 -17 -18 -14
-35 3 -13 1 -32 -5 -42 -9 -15 -12 -13 -28 17 l-19 34 -3 -27 c-4 -36 17 -65
80 -108 63 -42 87 -74 95 -123 4 -30 3 -37 -11 -37 -10 0 -16 9 -16 23 -1 12
-7 36 -15 52 -13 30 -13 30 -14 -23 -1 -73 -25 -66 -28 8 -1 30 -5 60 -7 67
-8 20 -26 15 -26 -7 0 -20 0 -20 -42 1 -24 11 -53 33 -65 47 -19 23 -23 24
-23 9 0 -18 21 -41 89 -98 21 -18 31 -36 31 -54 0 -25 -3 -27 -31 -23 -28 4
-30 3 -27 -26 l3 -31 130 0 c72 -1 137 1 145 3 23 5 23 43 0 49 -35 9 -53 100
-53 271 1 149 -6 182 -26 143z"/>
<path d="M877 473 c-4 -3 -7 -53 -7 -109 0 -57 -4 -105 -9 -108 -14 -9 -18 13
-16 94 3 84 -1 96 -21 79 -10 -8 -14 -37 -14 -104 0 -69 -4 -96 -15 -105 -12
-10 -14 0 -12 79 1 65 -1 91 -10 91 -21 0 -25 -20 -25 -122 0 -110 -23 -200
-53 -206 -11 -3 -15 -12 -13 -30 l3 -27 135 0 c74 -1 140 1 145 2 15 5 16 41
2 50 -7 4 -21 7 -32 8 -15 0 -19 6 -17 25 2 24 28 53 85 95 15 11 27 29 27 39
0 19 -1 19 -20 -2 -18 -19 -90 -62 -104 -62 -2 0 -2 10 2 22 4 17 2 20 -12 15
-10 -4 -20 -7 -22 -7 -2 0 -4 -30 -4 -66 0 -48 -3 -65 -12 -61 -8 2 -12 19
-11 45 1 23 -2 42 -6 42 -11 0 -21 -26 -21 -55 0 -27 -19 -43 -30 -26 -21 36
20 109 84 146 23 13 52 35 64 48 25 26 41 87 23 87 -6 0 -11 -6 -11 -13 0 -8
-9 -22 -20 -32 -23 -21 -21 -27 -23 93 -1 77 -9 97 -30 75z"/>
</g>
</svg>
