<svg width="29" height="26" viewBox="0 0 29 26" fill="none" xmlns="http://www.w3.org/2000/svg">
<g opacity="0.42">
<path d="M22.2456 23.0707C21.9968 22.9383 21.6045 23.5834 21.3621 23.7381C20.9571 23.9964 20.5297 24.2213 20.0792 24.4063C19.7578 24.5386 19.4309 24.6399 19.1048 24.7507C19.0434 24.7986 18.9541 24.7842 18.8967 24.8416C18.2397 25.1359 17.5739 25.403 16.8722 25.5744C16.8347 25.5409 16.7877 25.5529 16.7119 25.5409C16.7853 25.5569 16.8339 25.5385 16.8698 25.5752C16.7374 25.6007 16.6051 25.6263 16.4735 25.651C16.3906 25.6454 16.3085 25.6414 16.2343 25.69C16.2144 25.69 16.1936 25.69 16.1737 25.6892C16.0764 25.71 15.9791 25.7307 15.8859 25.7634C15.7806 25.7873 15.6761 25.8112 15.5709 25.8352C15.5581 25.8248 15.5438 25.816 15.5286 25.8096C15.4465 25.8009 15.3644 25.7985 15.2822 25.812C15.2599 25.8208 15.2352 25.8272 15.2232 25.8519L15.2248 25.8463C15.1642 25.8878 15.0837 25.8312 15.0255 25.887C15.0111 25.8966 14.9968 25.9061 14.9824 25.9149C14.9043 25.8997 14.8254 25.8774 14.752 25.93C14.6699 25.9891 14.5893 25.954 14.508 25.9261C14.4386 25.8886 14.4323 25.8894 14.3613 25.938C14.3469 25.9436 14.3326 25.9492 14.3182 25.9556C14.1907 25.9292 14.0623 25.9356 13.9339 25.9516C13.9052 25.9516 13.8765 25.9516 13.8478 25.9524C13.6947 25.942 13.5408 25.9165 13.3885 25.9659C13.2482 26.0504 13.1206 25.9532 12.9882 25.9364C12.9819 25.9181 12.9707 25.9037 12.954 25.8942C12.7753 25.871 12.5967 25.8838 12.4181 25.887C12.4006 25.8926 12.3838 25.9013 12.3679 25.9117C12.3001 25.879 12.2339 25.891 12.167 25.9149C12.0912 25.8814 12.0059 25.9237 11.9309 25.8862L11.9357 25.8886C11.8727 25.8455 11.8073 25.8567 11.742 25.8806C11.7196 25.887 11.7053 25.879 11.6981 25.8567C11.6901 25.8368 11.6758 25.8232 11.6558 25.8144C11.4916 25.7889 11.3249 25.8224 11.1607 25.7945C11.0674 25.7833 10.9749 25.773 10.8824 25.8001C10.8673 25.8001 10.8529 25.8001 10.8378 25.8009C10.7732 25.7785 10.7094 25.7738 10.6456 25.8041C10.4032 25.7706 10.1672 25.7108 9.93912 25.6215C9.90085 25.5633 9.84105 25.5736 9.78444 25.572C9.53725 25.4827 9.28927 25.3974 9.04369 25.3049C8.51902 25.1072 7.99436 24.9078 7.47209 24.7029C7.38996 24.6702 6.75605 24.0108 6.69386 24.0546C6.62688 23.935 6.48017 23.9494 6.38847 23.8784C6.12773 23.6767 5.86062 23.4798 5.62141 23.2541C5.24585 22.9001 4.87189 22.5421 4.5346 22.1529C4.2045 21.7726 3.8114 21.4552 3.50601 21.0478C3.3577 20.8508 3.15596 20.6906 3.0547 20.4538C3.0236 20.3708 2.94626 20.3254 2.89682 20.2576C2.79157 19.9873 2.58984 19.7736 2.45987 19.5169C2.42718 19.4531 2.3905 19.3925 2.39847 19.3175C2.42159 19.2505 2.3881 19.1868 2.38571 19.1206C2.37694 19.1062 2.36498 19.0943 2.35143 19.0847C2.30837 19.0456 2.27328 19.0034 2.27568 18.9404C2.23421 18.8766 2.29481 18.7921 2.23182 18.7331C2.1473 18.674 2.19993 18.509 2.05162 18.4986C2.0269 18.5138 2.00059 18.5226 1.97268 18.5305C1.88098 18.5441 1.78689 18.5249 1.69599 18.5449C1.68005 18.5536 1.66569 18.5656 1.65533 18.58C1.63141 18.6262 1.58676 18.6142 1.54768 18.6166C1.45679 18.6605 1.35313 18.6015 1.26303 18.6549C1.24867 18.6645 1.23432 18.6741 1.21997 18.6836C1.14183 18.6788 1.0597 18.6366 0.991126 18.7107C0.95684 18.7482 0.91139 18.7259 0.872319 18.7323C0.740754 18.7339 0.608392 18.7243 0.476827 18.7386C0.369184 18.7331 0.298218 18.6701 0.243998 18.5839C0.21928 18.5353 0.204927 18.4835 0.189777 18.4317C0.174627 18.3894 0.166654 18.3455 0.167451 18.3001C0.191372 18.0984 0.358021 18.0553 0.509519 18.0114C0.697697 17.9572 0.874711 17.8655 1.07246 17.8408C1.16176 17.8544 1.25107 17.8631 1.34037 17.836C1.48629 17.7092 1.67686 17.7356 1.83952 17.7324C2.04125 17.7284 2.08351 17.659 2.06358 17.4876C2.06039 17.4581 2.07554 17.4262 2.08192 17.3951C2.12816 17.47 2.09627 17.5514 2.10584 17.6295C2.09468 17.5418 2.12338 17.4517 2.08909 17.3648C2.08909 17.3504 2.0883 17.3361 2.0883 17.3217C2.12657 17.2524 2.09228 17.1766 2.11062 17.1056C2.15448 17.0674 2.14172 17.0163 2.14411 16.9972C2.14491 17.0052 2.1481 17.0411 2.13454 17.0769C2.12338 17.0937 2.10823 17.0985 2.08989 17.0905C2.17361 16.809 1.91846 16.9191 1.8156 16.8537C1.82995 16.8417 1.8459 16.8361 1.86424 16.8361C1.91288 16.8361 1.96231 16.8329 1.99819 16.8377C1.94796 16.8258 1.88098 16.8425 1.8164 16.8282C1.59393 16.7995 1.37067 16.8242 1.14821 16.8146C0.893848 16.8026 0.634705 16.8298 0.38832 16.7381C0.238416 16.6822 0.0781464 16.6408 0.0239258 16.4598C0.0470493 16.3936 0.0175469 16.3202 0.0494414 16.2556C0.077349 16.1368 0.147517 16.0699 0.274298 16.0707C0.337289 16.0292 0.422607 16.089 0.481612 16.0268C0.567727 15.955 0.6666 16.014 0.757499 16.0005C0.858764 16.014 0.959232 16.0164 1.0589 15.9893C1.11472 15.9439 1.17053 15.9319 1.22794 15.9861C1.23671 16.0029 1.24947 16.0156 1.26701 16.0252C1.42728 16.0459 1.58755 16.03 1.74782 16.034C1.75739 16.034 1.76696 16.0332 1.77653 16.0332C2.12338 16.0515 2.12258 16.0507 2.22544 15.7302C2.28604 15.542 2.30039 15.3371 2.42478 15.172C2.44073 15.1657 2.45349 15.1553 2.46306 15.1409C2.49017 15.0756 2.46465 15.003 2.49017 14.9368C2.48618 14.8587 2.52206 14.7845 2.51409 14.7056C2.52286 14.4807 2.31554 14.5357 2.20391 14.4672C2.1465 14.4201 2.08112 14.3922 2.00537 14.397C1.78051 14.3181 1.53891 14.2965 1.36509 14.0852C1.25426 13.9505 1.17532 13.8181 1.14422 13.6515C1.18489 13.5486 1.17133 13.4442 1.15299 13.3397C1.21279 13.2384 1.17372 13.118 1.21917 13.0144C1.26223 13.0702 1.24628 13.1292 1.2415 13.1483C1.23432 13.1077 1.26382 13.0271 1.22475 12.9466C1.26223 12.7162 1.1498 12.6173 0.950461 12.4985C0.558158 12.2656 0.00638381 11.7801 0.0438598 11.2769C0.0542255 11.1398 0.105257 11.0242 0.161072 10.9117C0.314963 10.6031 0.408254 10.2523 0.696102 10.0275C0.924148 9.84964 0.967205 9.58253 1.06129 9.33933C1.10116 9.30345 1.10116 9.30345 1.06369 9.23886C1.05332 9.21574 1.0286 9.18863 1.03418 9.16949C1.11711 8.87925 1.07246 8.57466 1.13944 8.28283C1.18648 8.3195 1.15538 8.37053 1.16814 8.43592C1.16017 8.36097 1.18329 8.30435 1.14422 8.25412C1.10355 8.05717 1.22954 7.89291 1.25107 7.70553C1.32363 7.07243 1.66251 6.53022 1.86743 5.94177C1.96231 5.66907 2.11541 5.42827 2.25734 5.18029C2.39448 4.94028 2.48937 4.68114 2.65283 4.4507C2.904 4.09747 3.17909 3.76577 3.45338 3.43167C3.85206 2.94688 4.34005 2.54979 4.80411 2.13835C5.21236 1.77635 5.73304 1.5483 6.2593 1.37368C6.42355 1.31946 6.50728 1.13447 6.69625 1.13686C6.72097 1.16238 6.75207 1.15919 6.78316 1.15839C6.75207 1.1576 6.72097 1.16079 6.69546 1.13686C6.89001 1.10816 7.04709 0.992542 7.21852 0.910414C7.32537 0.859382 7.43301 0.819514 7.55262 0.825096C7.59727 0.78443 7.66744 0.837056 7.7081 0.782836C7.91542 0.713465 8.12911 0.660839 8.32606 0.561169C8.3747 0.536451 8.43929 0.510935 8.47437 0.590671C8.52221 0.510138 8.62427 0.565156 8.68168 0.507746C8.77099 0.458309 8.86827 0.481433 8.96236 0.474257C9.06043 0.420833 9.17525 0.494191 9.27173 0.431996C9.35625 0.375384 9.45353 0.36422 9.55161 0.357842C9.63373 0.404886 9.72144 0.360234 9.76769 0.372991C9.76769 0.372991 9.72463 0.392926 9.69513 0.350665C9.92956 0.334718 10.1504 0.250995 10.3952 0.25259C10.5738 0.254185 10.77 0.209532 10.9518 0.176043C11.2293 0.125012 11.5123 0.166475 11.7762 0.103483C12.1191 0.0213547 12.4596 0.0652096 12.8001 0.0349099C12.8248 0.0325178 12.8511 0.0428835 12.8766 0.0468703C12.9412 0.0763727 13.0058 0.0755754 13.0704 0.0476677C13.3335 0.0436809 13.5958 -0.0328659 13.8574 0.0165705C14.1548 0.0723859 14.4594 -0.000174061 14.752 0.0851437C14.677 0.12262 14.5973 0.0963068 14.5638 0.0994962C14.5965 0.09232 14.677 0.127404 14.752 0.0859411C15.1555 0.0412888 15.5438 0.181625 15.9417 0.189598C16.2566 0.195977 16.5596 0.272524 16.8674 0.317176C16.9073 0.369005 16.9766 0.315581 17.0197 0.358639C17.1465 0.351463 17.2693 0.362626 17.3809 0.431996C17.4439 0.467878 17.4487 0.467878 17.5268 0.427212C17.5691 0.381762 17.6305 0.383357 17.6719 0.402494C17.9 0.507746 18.1512 0.523693 18.388 0.594658C18.3242 0.62735 18.258 0.613795 18.2373 0.611403C18.258 0.610605 18.3242 0.630539 18.3888 0.595456C18.7253 0.607416 19.0235 0.750144 19.3313 0.866559C19.5099 0.933537 19.7004 0.971013 19.8846 1.02603C20.3016 1.15042 20.6684 1.38006 21.0472 1.58578C21.0839 1.61209 21.1261 1.61289 21.1684 1.60811C21.4961 1.70937 21.7991 1.86167 22.1061 2.01317C22.4434 2.17902 22.7416 2.41185 23.0972 2.5466C23.275 2.61438 23.4377 2.74355 23.5932 2.85757C23.999 3.15499 24.42 3.42689 24.786 3.7849C25.1911 4.18119 25.636 4.54001 26.0307 4.94905C26.2069 5.13165 26.3744 5.32062 26.5067 5.55186C26.655 5.80941 26.8288 6.06377 27.0274 6.2958C27.3216 6.64106 27.5218 7.04213 27.7075 7.45676C27.8933 7.87139 27.9938 8.31073 28.1293 8.73812C28.2059 8.98131 28.2505 9.23567 28.3574 9.47089C28.3191 9.58173 28.3383 9.68459 28.3989 9.78187C28.5097 10.3002 28.6676 10.8121 28.6939 11.3431C28.7074 11.619 28.7601 11.8925 28.7465 12.1692C28.7337 12.2609 28.7003 12.3542 28.7688 12.4387C28.8215 12.5296 28.7648 12.6237 28.7792 12.7162C28.7609 12.7186 28.7465 12.7122 28.7369 12.6962C28.733 12.6779 28.7298 12.6595 28.7345 12.6412C28.7282 12.654 28.7314 12.6683 28.7337 12.6803C28.7377 12.6986 28.7497 12.7138 28.7625 12.7281C28.7848 12.7863 28.7489 12.8533 28.788 12.9091C28.7824 13.2815 28.8573 13.6499 28.8366 14.023C28.8868 14.1929 28.8845 14.3651 28.8701 14.5389C28.8717 14.5605 28.8757 14.582 28.8813 14.6027C28.603 14.9631 28.2139 15.1417 27.7889 15.2486C27.6629 15.2805 27.5935 15.306 27.6087 15.4527C27.6254 15.6066 27.6182 15.7629 27.6214 15.9176C27.6182 16.0443 27.6589 16.1711 27.627 16.2995C27.6541 16.211 27.6071 16.1121 27.6605 16.0268C27.741 16.1512 27.6804 16.2899 27.6996 16.4207C27.6629 16.4566 27.6804 16.5044 27.6717 16.5467C27.6812 16.5052 27.6629 16.4574 27.6996 16.4223C27.761 16.4949 27.7155 16.5834 27.7355 16.6623C27.686 16.7293 27.7307 16.801 27.7163 16.8425C27.7115 16.8226 27.6996 16.7739 27.7378 16.7317C27.7769 16.8497 27.7793 16.9709 27.7713 17.0937C27.753 17.2029 27.7251 17.3122 27.7873 17.4174C27.82 17.529 27.7697 17.6455 27.8064 17.7571C27.8272 17.8743 27.8734 17.9883 27.8503 18.1103C27.8064 18.1709 27.8479 18.2443 27.8232 18.3073C27.8232 18.3336 27.8662 18.2961 27.8423 18.3065C27.8271 18.2403 27.8192 18.1741 27.8503 18.1103C27.9196 18.2211 27.867 18.3463 27.8885 18.462C27.8487 18.5058 27.8877 18.5497 27.8869 18.5935C27.8949 18.7043 27.8782 18.816 27.8973 18.9268C27.9061 18.9436 27.918 18.9571 27.9332 18.9683C27.942 18.9818 27.9507 18.9962 27.9595 19.0097C27.9483 19.0233 27.9396 19.0384 27.9332 19.0544C27.926 19.1429 27.9188 19.2306 27.9404 19.3183C27.9555 19.3566 27.9292 19.4068 27.9723 19.4379C28.0528 19.5201 28.0504 19.6221 28.0464 19.7266C28.0369 19.9323 28.0241 20.1372 28.0823 20.3389C28.044 20.445 28.0727 20.555 28.0664 20.6627C28.0664 20.6683 28.0759 20.6491 28.0855 20.6475C28.1724 20.7863 28.1046 20.937 28.1214 21.0813C28.1038 21.0932 28.0895 21.0901 28.0775 21.0733C28.0552 21.0406 28.0727 21.0015 28.0608 20.9673C28.0568 21.0263 28.0759 21.0773 28.1078 21.1251C28.1477 21.287 28.0959 21.4552 28.1413 21.6171C28.1716 21.6865 28.1565 21.7559 28.1421 21.8252C28.1517 21.8914 28.0998 21.9512 28.1198 22.019C28.005 22.3276 27.8415 22.5915 27.4986 22.688C27.4556 22.6832 27.4141 22.6848 27.3806 22.7183L27.3711 22.7302L27.3559 22.7262C27.2849 22.7549 27.2004 22.7534 27.1462 22.8203C27.0218 22.8793 26.8902 22.9128 26.7531 22.92C26.7053 22.9479 26.6351 22.9128 26.5992 22.9742C26.1575 23.0619 25.7508 22.9774 25.404 22.6912C25.1855 22.5118 25.1528 22.2263 25.0707 21.9735C25.0475 21.901 25.0459 21.822 25.034 21.7455C25.0579 21.6857 25.0244 21.6323 25.0156 21.5764C25.0005 21.5055 25.042 21.4273 24.9893 21.3612C24.9798 21.3325 24.9702 21.3045 24.9598 21.2758C24.971 21.2639 24.9798 21.2495 24.9869 21.2352C24.9957 21.1698 25.0013 21.1036 24.9822 21.039C24.9734 21.0247 24.9614 21.0135 24.9471 21.0055C24.8873 20.8724 24.8378 20.736 24.8219 20.5494C24.605 20.9035 24.3379 21.1706 24.1035 21.464C23.7853 21.8627 23.3906 22.1753 22.9696 22.4551C22.8038 22.5652 22.6443 22.6872 22.4593 22.7693C22.3987 22.786 22.1467 23.0181 22.2456 23.0707Z" fill="#100A00"/>
<path d="M3.809 13.1053C3.90947 12.6938 4.16781 12.3326 4.19652 11.8988C4.22522 11.8319 4.22522 11.7569 4.25233 11.6891C4.28104 11.6437 4.26509 11.5775 4.31852 11.5432C4.42217 11.4188 4.36078 11.2203 4.50988 11.1166C4.57128 11.0592 4.63746 11.0816 4.70364 11.1047C4.82484 11.0808 4.94604 11.0568 5.06724 11.0329C5.06963 11.0114 5.0784 11.0082 5.09355 11.0241C5.48984 10.9006 5.90766 10.9006 6.30873 10.8049C6.36774 10.7347 6.45784 10.7977 6.52242 10.7546C6.64761 10.7586 6.77439 10.7794 6.894 10.7211C6.97054 10.6741 7.04948 10.6837 7.12842 10.7156C7.2847 10.698 7.44418 10.7164 7.59807 10.6701C7.67541 10.6462 7.75275 10.6446 7.8301 10.6709C7.91143 10.6582 7.99754 10.6613 8.06771 10.6079C8.15383 10.5561 8.24154 10.5657 8.33004 10.6023C8.45364 10.6645 8.57723 10.6669 8.70082 10.6023C8.7375 10.5537 8.79092 10.5856 8.83557 10.5752C8.89139 10.5553 8.9488 10.5545 9.00621 10.5601C9.03093 10.5593 9.05644 10.5593 9.08116 10.5585C9.09631 10.5417 9.11465 10.5377 9.13538 10.5473C9.25738 10.5601 9.37937 10.5657 9.49977 10.5378C9.84264 10.5537 10.1855 10.5457 10.5284 10.5537C10.5539 10.5545 10.5794 10.5553 10.6057 10.5569C10.7724 10.6127 10.9494 10.5385 11.116 10.5968C11.1822 10.631 11.2468 10.6015 11.3114 10.5928C11.4645 10.5665 11.6168 10.5983 11.7699 10.5999C11.8329 10.6454 11.9054 10.6334 11.9764 10.6318C12.1287 10.5888 12.281 10.5545 12.4309 10.6422C12.7179 10.718 13.0138 10.7227 13.308 10.7459C13.3574 10.7323 13.4068 10.7132 13.4507 10.7586C13.674 10.8097 13.9036 10.7977 14.1293 10.8232C14.2313 10.8081 14.3326 10.7921 14.4323 10.8352C14.6635 10.9364 14.9179 10.8782 15.1547 10.9436C15.24 10.9667 15.3301 10.9707 15.4178 10.9835C15.4545 10.9643 15.4912 10.9516 15.5223 10.993C15.6307 11.0146 15.728 11.0879 15.8468 11.064C15.9209 11.0377 15.9951 11.0257 16.0669 11.072C16.3443 11.1493 16.6051 11.3128 16.8961 11.3088C17.3913 11.3024 17.8537 11.5193 18.3481 11.4962C18.443 11.4603 18.5331 11.4794 18.62 11.5217C18.636 11.5448 18.6567 11.5504 18.6814 11.5368C18.7308 11.5711 18.8018 11.5265 18.8465 11.5807C18.9294 11.6564 19.0418 11.6046 19.1327 11.6461C19.1702 11.6317 19.2069 11.6174 19.238 11.658C19.6829 11.7394 20.1342 11.7792 20.5727 11.8981C20.6302 11.8861 20.6876 11.8757 20.733 11.9284C20.7928 11.9706 20.8638 11.9531 20.9292 11.9658C20.9523 11.9419 20.9802 11.9451 21.0081 11.9507C21.0719 11.9738 21.1413 11.9555 21.2051 11.9778C21.2601 11.9882 21.3239 11.9762 21.3597 12.0368C21.5049 12.2282 21.7337 12.2202 21.9267 12.2226C22.1595 12.2258 22.197 12.3278 22.1826 12.512C22.1802 12.5375 22.1818 12.5638 22.1818 12.5902C22.1818 12.6962 22.1842 12.8023 22.1699 12.9083C22.2018 12.9984 22.1555 13.1005 22.2137 13.1866C22.2496 13.2209 22.2448 13.2576 22.2177 13.2942C22.2344 13.7216 22.2432 14.1482 22.3604 14.5668C22.5111 15.105 22.8157 15.3809 23.3627 15.4176C23.4592 15.424 23.5485 15.4814 23.6466 15.4503C23.7351 15.4758 23.826 15.4591 23.9161 15.4647C23.9384 15.4623 23.9544 15.471 23.9655 15.491C24.0572 15.5404 24.1561 15.5221 24.2534 15.5189C24.3307 15.4902 24.369 15.5197 24.3738 15.5994C24.4065 15.7956 24.3307 15.9981 24.4057 16.1926C24.4384 16.2277 24.4304 16.2652 24.4128 16.3035C24.4041 16.3386 24.4248 16.3625 24.4455 16.3864C24.5125 16.5275 24.5053 16.6703 24.4495 16.8122C24.44 16.8481 24.4503 16.8776 24.4782 16.9023C24.5596 16.9573 24.5069 17.0474 24.5348 17.116C24.542 17.1359 24.5372 17.1527 24.5205 17.1654C24.5221 17.2173 24.5229 17.2691 24.5245 17.3201C24.5851 17.4317 24.4894 17.5498 24.5388 17.6622C24.5667 17.7164 24.5659 17.7738 24.5596 17.832C24.5739 17.9094 24.5883 17.9867 24.6026 18.0633C24.6329 18.1422 24.6353 18.2203 24.601 18.2985C24.5803 18.446 24.6002 18.5895 24.6401 18.7306V18.7299C24.664 18.9491 24.5269 19.1118 24.4384 19.2896C24.2837 19.599 24.0158 19.8214 23.8053 20.0878C23.7558 20.1508 23.7144 20.2098 23.6976 20.2871C23.6633 20.3788 23.5804 20.425 23.5134 20.4872C23.409 20.6324 23.3093 20.7815 23.1993 20.9226C23.0031 21.1746 22.7607 21.3803 22.5032 21.5645C22.2584 21.7399 21.9952 21.8954 21.8047 22.1314C21.5702 22.4208 21.221 22.5548 20.9563 22.7948C20.6756 23.0492 20.3288 23.1855 20.0258 23.396C19.9779 23.4263 19.9396 23.4797 19.8711 23.4558C19.7802 23.4606 19.6964 23.4781 19.6191 23.5356C19.462 23.6536 19.2635 23.6807 19.0889 23.7612C19.0195 23.7931 18.9597 23.8433 18.8951 23.8856C18.8297 23.931 18.7476 23.8856 18.6806 23.9231C18.6033 23.9151 18.5459 23.9454 18.5044 24.01C18.4693 24.0403 18.4278 24.0443 18.384 24.0387C17.9167 24.2101 17.4503 24.3816 16.983 24.5522C16.9511 24.5905 16.9057 24.5889 16.8618 24.5913C16.7047 24.6423 16.5477 24.6925 16.3914 24.7436C16.2901 24.8073 16.1857 24.7962 16.0804 24.7547C16.031 24.7842 15.9592 24.7547 15.9209 24.8145C15.8627 24.8552 15.795 24.8568 15.728 24.8648C15.5829 24.8895 15.4337 24.8951 15.295 24.9533C15.2408 24.9772 15.1898 24.9716 15.1403 24.9397C15.1116 24.9277 15.0853 24.9285 15.0606 24.9501C15.0159 25.0019 14.9657 25.021 14.9043 24.9764C14.8915 24.9796 14.8788 24.9836 14.8652 24.9868C14.7217 25.0234 14.5726 24.9716 14.4299 25.0163C14.2241 25.0306 14.0192 25.0378 13.8135 25.0147C13.7481 25.0147 13.6827 25.029 13.6174 25.0258C13.434 25.0242 13.2514 25.0218 13.068 25.0202C12.8846 25.0035 12.6956 25.0585 12.5178 24.974C12.4014 24.9764 12.285 24.9788 12.1685 24.9812C12.1542 24.9971 12.1446 24.9947 12.1406 24.9732C11.97 24.927 11.793 24.9708 11.6208 24.9413C11.4796 24.9907 11.3385 25.0123 11.1998 24.9341C11.0754 24.8823 10.9494 24.8504 10.8146 24.8951C10.7971 24.8871 10.7795 24.8791 10.762 24.8703C10.6599 24.8416 10.5459 24.8951 10.4486 24.8273C10.2732 24.7627 10.093 24.7077 9.93593 24.6008C9.87772 24.5976 9.8251 24.5737 9.77008 24.5594C9.69593 24.5402 9.61539 24.5514 9.54762 24.5075C9.44874 24.3824 9.29326 24.3744 9.1585 24.3409C8.92328 24.2827 8.72873 24.1296 8.49191 24.0802C8.45922 24.0786 8.43051 24.069 8.40978 24.0419C8.16419 23.9271 7.88831 23.8561 7.74957 23.5842C7.7392 23.5635 7.71289 23.5443 7.68976 23.5363C7.46411 23.4598 7.29985 23.294 7.12045 23.1496C7.06702 23.1688 7.03114 23.1504 7.00882 23.0994C6.79114 22.9367 6.52801 22.8387 6.34063 22.6321C6.23458 22.5971 6.17876 22.5038 6.10859 22.4272C5.79443 22.0979 5.52891 21.7303 5.18286 21.4233C4.90537 21.1778 4.59201 20.9473 4.3839 20.6411C4.2332 20.4195 4.00675 20.2488 3.92143 19.9817C3.89831 19.9107 3.81458 19.8868 3.77551 19.835C3.55305 19.5448 3.36806 19.2322 3.25643 18.8806C3.20938 18.8383 3.21895 18.7737 3.19503 18.7227C3.16393 18.6597 3.1743 18.5919 3.1743 18.5257C3.18467 18.4276 3.10015 18.371 3.07304 18.2897C3.00048 18.1924 3.04274 18.0856 3.04832 17.9827C3.05629 17.9612 3.05151 17.9444 3.02759 17.9373C2.93828 17.7858 2.98852 17.6223 2.98612 17.4636C2.9941 17.4445 3.00127 17.4246 3.00765 17.4046C3.03795 17.2595 2.98214 17.1072 3.04433 16.9645C3.01961 16.8273 3.1448 16.7109 3.09775 16.5714C3.06426 16.4669 3.0539 16.3625 3.10334 16.2596L3.09935 16.2676C3.13842 16.1767 3.08579 16.0754 3.13204 15.9853C3.15676 15.9327 3.18148 15.8801 3.2054 15.8275C3.21576 15.7358 3.18945 15.6393 3.24447 15.5548C3.28194 15.542 3.28673 15.5101 3.28832 15.4774C3.2939 15.3857 3.25723 15.2892 3.31304 15.2015C3.38241 15.0692 3.49006 14.948 3.42148 14.7797C3.39278 14.7095 3.44461 14.6641 3.4757 14.6075C3.53391 14.5006 3.57697 14.385 3.59451 14.263C3.58494 14.1849 3.55783 14.1059 3.61285 14.0334C3.65272 13.9592 3.68541 13.8835 3.68142 13.7974C3.68541 13.6666 3.66229 13.5334 3.7173 13.4075C3.71252 13.3644 3.79624 13.3612 3.76275 13.3062C3.80661 13.2472 3.75398 13.1651 3.809 13.1053Z" fill="white"/>
<path d="M18.309 10.5928C18.3042 10.588 18.2995 10.58 18.2947 10.58C17.9008 10.588 17.5483 10.3871 17.1584 10.3592C16.9527 10.3448 16.7534 10.2603 16.5485 10.2228C16.1928 10.1582 15.8356 10.0984 15.4776 10.049C15.1196 9.99956 14.76 9.97325 14.4035 9.90787C13.9969 9.83371 13.5823 9.8058 13.1684 9.77471C12.8941 9.75477 12.6183 9.75796 12.3424 9.7173C11.9923 9.66626 11.6343 9.66148 11.2795 9.65989C11.0937 9.65909 10.9071 9.59769 10.7213 9.65909C10.6432 9.68141 10.565 9.69337 10.4885 9.65111C10.4462 9.60646 10.3928 9.57377 10.333 9.58733C9.96782 9.67344 9.59864 9.58892 9.23265 9.61683C8.72473 9.6551 8.21442 9.64952 7.7081 9.72288C7.51035 9.75158 7.30623 9.76354 7.10768 9.76354C6.71379 9.76275 6.33903 9.88953 5.95151 9.90946C5.64692 9.92461 5.35508 10.0115 5.05448 10.0482C4.94524 10.0618 4.8368 10.0793 4.73473 10.1271C4.51147 10.2332 4.26349 10.2045 4.02827 10.2348C3.55464 10.2954 3.0834 10.356 2.63528 10.533C2.49734 10.5872 2.3873 10.6789 2.30039 10.7937C2.18796 10.942 2.16962 11.1047 2.27168 11.2674C2.38331 11.4452 2.63687 11.5608 2.82744 11.5265C3.1719 11.4643 3.18466 11.4675 3.10572 11.8016C2.96858 12.3813 2.8115 12.9554 2.63528 13.5239C2.61455 13.5909 2.58186 13.6132 2.52365 13.5869C2.35541 13.5111 2.18078 13.4442 2.03566 13.3262C1.97108 13.2735 1.9631 13.193 1.9639 13.1117C1.96709 12.8892 1.98543 12.6811 2.15447 12.5001C2.30597 12.3374 2.21427 12.0376 2.00935 11.9387C1.83393 11.8542 1.65851 11.7721 1.48548 11.6828C1.1793 11.5249 1.10833 11.2403 1.28774 10.9412C1.46316 10.6486 1.76137 10.5043 2.03008 10.3281C2.13135 10.2619 2.24617 10.218 2.33946 10.1327C2.47979 10.0035 2.66319 9.95411 2.83063 9.87278C3.23569 9.67743 3.69497 9.68141 4.09126 9.51636C4.58244 9.31144 5.09993 9.29948 5.59668 9.16632C5.63894 9.15516 5.67881 9.13124 5.71948 9.1129C5.80878 9.06904 5.90048 9.08339 5.99138 9.10572C6.22421 9.15276 6.43232 9.02519 6.65717 9.01243C7.1619 8.98293 7.64431 8.82345 8.14266 8.75647C8.28619 8.72538 8.42971 8.72538 8.57324 8.75647C8.60114 8.74531 8.62905 8.73335 8.65616 8.72219C8.75822 8.68072 8.86108 8.6879 8.96394 8.7174C9.09551 8.80432 9.23425 8.73495 9.35784 8.71023C9.60423 8.65999 9.85779 8.72936 10.0978 8.64405C10.2262 8.60498 10.3537 8.60577 10.4821 8.64325C10.6998 8.72219 10.9382 8.70066 11.1511 8.6887C11.4262 8.67355 11.7029 8.76365 11.974 8.67833C12.222 8.64724 12.4699 8.64484 12.7179 8.67993C13.0273 8.80591 13.3614 8.7198 13.6772 8.79475C14.1229 8.9008 14.5925 8.84099 15.0327 8.98771C15.2631 9.06426 15.5079 9.022 15.7439 9.06665C15.8699 9.09057 15.9991 9.10093 16.1219 9.1432C16.2255 9.12486 16.3292 9.10891 16.4312 9.15356C16.55 9.2325 16.6976 9.20778 16.8227 9.26519C16.9144 9.23968 17.0061 9.22851 17.0962 9.27077C17.3155 9.32101 17.5364 9.36327 17.7557 9.40951C17.9925 9.45895 18.2955 9.21735 18.3385 8.98771C18.3776 8.7796 18.2157 8.53002 17.9494 8.48059C17.5372 8.40484 17.1249 8.31713 16.7047 8.28922C16.6386 8.31155 16.5732 8.32829 16.5102 8.28045C16.1195 8.18397 15.7288 8.08031 15.3293 8.03965C15.0398 8.01014 14.7584 7.93998 14.4634 7.92961C14.0655 7.91605 13.6692 7.84828 13.2729 7.79964C13.2019 7.79087 13.1334 7.76137 13.0688 7.81559C12.9404 7.85147 12.812 7.85227 12.6844 7.81559C12.6358 7.77333 12.576 7.78768 12.5202 7.7821C12.4564 7.80522 12.3926 7.81559 12.3304 7.77572C12.3033 7.76376 12.2754 7.7526 12.2483 7.74063C12.1717 7.76854 12.0952 7.77412 12.0202 7.73665C11.9381 7.68083 11.8384 7.6896 11.7579 7.70954C11.4788 7.77891 11.1958 7.67047 10.9191 7.74143C10.7883 7.76615 10.6583 7.7805 10.5292 7.73346C10.4486 7.68004 10.3697 7.68243 10.2908 7.73665C10.1098 7.77652 9.92795 7.77014 9.74616 7.73984C9.10667 7.75818 8.47038 7.85785 7.8285 7.82356C7.77268 7.82037 7.71527 7.84668 7.65866 7.85785C7.1029 7.9639 6.54714 8.06915 5.99058 8.1744C5.92759 8.19832 5.8638 8.19832 5.80081 8.1744C5.43721 8.2342 5.07282 8.29081 4.71002 8.3546C4.36556 8.416 4.03625 8.538 3.69896 8.62411C3.32978 8.7182 2.96379 8.83143 2.58983 8.90718C2.4782 8.9303 2.37693 8.96778 2.29162 9.04034C2.2071 9.1129 2.17839 9.11768 2.15208 8.98771C2.11699 8.8107 2.19434 8.6568 2.2071 8.49016C2.24378 8.01732 2.33707 7.54448 2.53322 7.12108C2.74452 6.6642 2.87688 6.17222 3.15117 5.74324C3.23091 5.61885 3.26918 5.46815 3.34573 5.34057C3.63677 4.85658 3.98123 4.41484 4.36077 3.99383C4.74271 3.56963 5.16292 3.18929 5.58552 2.81054C5.83111 2.59127 6.11656 2.4318 6.44189 2.33053C6.73452 2.23883 7.00403 2.07617 7.28629 1.95019C7.50716 1.85132 7.7081 1.71098 7.97202 1.70939C8.12751 1.70859 8.27741 1.60732 8.42333 1.54832C8.79251 1.40001 9.18561 1.42792 9.56037 1.33542C10.227 1.17117 10.9111 1.13608 11.5928 1.08744C11.7986 1.07309 11.9971 1.00691 12.2076 1.00372C12.6326 0.996544 13.0568 0.950297 13.4826 1.00053C13.615 1.01648 13.7641 1.01728 13.8821 0.990963C14.099 0.942323 14.3055 0.968636 14.5176 0.972623C14.6069 0.9495 14.6954 0.939134 14.7831 0.978205C15.0829 1.01728 15.3819 1.05714 15.6817 1.09542C16.1107 1.15123 16.5413 1.19828 16.9655 1.28599C17.2892 1.35297 17.6209 1.35695 17.9438 1.43749C18.2014 1.50127 18.4589 1.54832 18.7013 1.66872C18.9565 1.7955 19.238 1.8561 19.5178 1.91271C19.6845 1.9462 19.8352 2.01717 19.9835 2.10009C20.3184 2.28668 20.6772 2.41585 21.0344 2.55379C21.3781 2.68615 21.7066 2.86955 22.0176 3.06809C22.2799 3.23633 22.5701 3.34478 22.8301 3.5202C23.346 3.86785 23.8515 4.22187 24.2717 4.68753C24.3315 4.75451 24.4041 4.8175 24.483 4.85897C24.8027 5.02482 24.9654 5.35732 25.2469 5.56782C25.384 5.66988 25.447 5.86763 25.5594 6.00956C25.868 6.40027 26.1471 6.8133 26.4493 7.208C26.6175 7.42807 26.6606 7.74542 26.781 8.01174C26.9221 8.3243 26.9716 8.67275 27.0999 8.98612C27.2355 9.31782 27.2817 9.66706 27.3774 10.0051C27.4843 10.3823 27.517 10.7802 27.5784 11.1693C27.6095 11.3662 27.6589 11.5688 27.6685 11.7593C27.6844 12.0623 27.7689 12.3637 27.7474 12.6612C27.7147 13.1165 27.741 13.567 27.7705 14.0191C27.7809 14.1801 27.7219 14.2463 27.5728 14.2942C27.3248 14.3739 27.0617 14.3795 26.8169 14.4576C26.3169 14.6179 25.7947 14.582 25.2836 14.637C24.9096 14.6777 24.5213 14.6011 24.1417 14.5581C23.9504 14.5366 23.7558 14.5565 23.566 14.4752C23.4568 14.4281 23.4129 14.3683 23.3938 14.2686C23.2909 13.74 23.2575 13.2058 23.2694 12.6667C23.2742 12.4427 23.224 12.2218 23.2192 11.9962C23.2128 11.7306 22.8181 11.3878 22.5167 11.3415C22.1643 11.2865 21.815 11.2227 21.469 11.1382C21.1429 11.0593 20.8199 10.9676 20.493 10.8894C20.3806 10.8623 20.2626 10.8607 20.1469 10.8472C19.655 10.7882 19.1758 10.6351 18.6742 10.6526C18.6431 10.6534 18.6112 10.6151 18.5801 10.5952C18.4892 10.6199 18.3983 10.6319 18.309 10.5928Z" fill="white"/>
<path d="M26.9078 19.0751C26.8345 19.1971 26.9246 19.3128 26.923 19.4324C26.9222 19.4762 26.9477 19.5201 26.9525 19.5647C26.9884 19.9227 26.9557 19.9538 26.6016 20.0256C26.3919 20.0679 26.1838 20.1125 25.9733 20.15C25.8736 20.1675 25.8441 20.1468 25.841 20.0519C25.8218 19.4579 25.6855 18.8758 25.656 18.2842C25.6392 17.9477 25.5523 17.6192 25.534 17.2954C25.5077 16.8409 25.4192 16.384 25.4678 15.9264C25.4798 15.8155 25.3912 15.7007 25.4566 15.6058C25.5284 15.503 25.6496 15.6026 25.7517 15.5803C25.9789 15.5309 26.2141 15.5165 26.4422 15.4711C26.557 15.4479 26.5602 15.4982 26.5594 15.5811C26.5522 16.2174 26.6535 16.8417 26.7763 17.4637C26.8034 17.6016 26.789 17.7483 26.793 17.8911C26.8042 18.2379 26.7683 18.5895 26.9086 18.922C26.9421 18.9739 26.9413 19.0249 26.9078 19.0751Z" fill="white"/>
<path d="M27.1215 21.5159C27.1103 21.783 27.0593 21.8396 26.773 21.9305C26.7236 21.9464 26.6726 21.9552 26.6231 21.9711C26.1957 22.1075 26.183 22.1099 26.1088 21.6769C26.0825 21.523 25.9884 21.3787 26.0331 21.2089C26.0466 21.1586 26.0498 21.1204 26.1056 21.118C26.3847 21.1076 26.6518 21.047 26.9094 20.9386C26.9796 20.9091 27.0665 20.8947 27.0625 21.0071C27.0569 21.1905 27.1079 21.3659 27.1215 21.5159Z" fill="white"/>
<path d="M16.3922 15.0564C16.8985 15.046 17.2661 15.2924 17.5252 15.7023C17.6959 15.9726 17.8474 16.2588 17.9183 16.5778C17.8888 16.6089 17.9016 16.6471 17.8992 16.683C17.8984 16.6974 17.8952 16.7133 17.9048 16.7277C17.9 16.7077 17.9088 16.6942 17.9255 16.6838C18.0563 16.9765 17.9686 17.2946 18.0324 17.5952C18.0084 17.6861 18.0021 17.777 18.0355 17.8671C17.9925 18.2347 17.8872 18.5839 17.7046 18.9053C17.5651 19.1509 17.3594 19.3462 17.1194 19.4873C16.9719 19.5743 16.8052 19.642 16.629 19.6676C16.5525 19.6301 16.4775 19.6412 16.4026 19.6723C16.1984 19.7728 15.9911 19.6843 15.8292 19.6062C15.5629 19.4778 15.3118 19.3119 15.1658 19.0121C15.0271 18.7283 14.8652 18.458 14.8349 18.1374C14.819 17.9716 14.7839 17.8049 14.8214 17.6375C14.8142 17.4142 14.8724 17.1917 14.8294 16.9685C14.8939 16.388 15.0933 15.8586 15.4338 15.3833C15.5167 15.2677 15.6235 15.188 15.7702 15.1752C15.8292 15.2223 15.8803 15.1345 15.9377 15.1656C15.9784 15.109 16.031 15.0779 16.1035 15.0883C16.196 15.0492 16.2989 15.0963 16.3922 15.0564Z" fill="#100A00"/>
<path d="M11.4278 13.2137C11.8432 13.3541 12.1486 13.6228 12.3368 14.0159C12.4389 14.228 12.5385 14.4409 12.5664 14.6841C12.58 14.8005 12.6023 14.9105 12.568 15.0245C12.5338 15.011 12.5537 14.9735 12.5361 14.9528C12.5585 14.9783 12.513 15.0285 12.5688 15.0429C12.6725 15.1944 12.6071 15.3658 12.5991 15.5189C12.5768 15.9192 12.505 16.3186 12.3384 16.687C12.2204 16.9486 12.0123 17.1359 11.7404 17.2436C11.7045 17.2579 11.667 17.2707 11.6359 17.2922C11.0618 17.6965 10.3314 17.5179 9.91043 17.1487C9.68956 16.9557 9.57155 16.6775 9.47108 16.4032C9.41846 16.2588 9.38816 16.1057 9.34829 15.9558C9.34191 15.8665 9.39135 15.7772 9.34988 15.6879C9.30204 15.4256 9.29327 15.1657 9.32995 14.8977C9.38098 14.527 9.51653 14.1873 9.6776 13.8604C9.80279 13.606 10.0532 13.4553 10.2876 13.3094C10.3817 13.2512 10.4853 13.181 10.6081 13.1778C10.6584 13.1978 10.7094 13.2185 10.7564 13.1715C10.8896 13.1125 11.0212 13.1212 11.1519 13.1778C11.1009 13.2137 11.0419 13.185 10.9885 13.1986C11.0427 13.1882 11.1017 13.2137 11.1535 13.1786C11.183 13.189 11.2117 13.1994 11.2412 13.2105C11.3018 13.2544 11.3648 13.2408 11.4278 13.2137Z" fill="#100A00"/>
<path d="M4.46443 15.9112C4.64942 15.491 4.92929 15.1649 5.37502 15.0062C5.42366 14.9886 5.46991 14.9647 5.52413 14.9775C5.59748 15.0181 5.67882 14.9767 5.75377 15.0006C5.68838 14.9759 5.61104 15.0229 5.55044 14.9679C5.65489 14.9113 5.76892 14.9583 5.87656 14.936C5.96826 14.9647 6.05916 14.9687 6.15006 14.9336C6.68828 15.1059 7.02317 15.4695 7.16988 16.0125C7.20337 16.1073 7.15952 16.2214 7.24404 16.3027C7.38118 16.6798 7.44019 17.0626 7.33494 17.4581C7.32537 17.4948 7.30543 17.5282 7.29028 17.5625C7.23766 17.6088 7.26477 17.659 7.28231 17.7092C7.25998 18.0497 7.12443 18.3415 6.9522 18.6374C6.75366 18.977 6.44747 19.0943 6.11099 19.1955C6.03284 19.2035 5.9555 19.1836 5.87736 19.1915C5.57675 19.1684 5.28013 19.1756 5.00425 18.9906C4.65101 18.7538 4.49075 18.3998 4.34004 18.037C4.16941 17.6295 4.14708 17.2045 4.26589 16.7739C4.29459 16.6695 4.2938 16.5571 4.30576 16.4486C4.352 16.5084 4.33127 16.5698 4.32729 16.6312C4.32489 16.522 4.352 16.4127 4.31293 16.3027C4.34961 16.211 4.38629 16.1193 4.42217 16.0276C4.46124 15.9989 4.46603 15.9558 4.46443 15.9112Z" fill="#100A00"/>
<path d="M10.7237 20.2903C10.2852 20.213 9.84027 20.1691 9.42564 19.9793C9.16969 19.8621 9.04291 19.7058 9.07959 19.4818C9.11068 19.2928 9.3164 19.1317 9.55083 19.1102C9.69435 19.0975 9.84186 19.0975 9.97582 19.1437C10.2645 19.2434 10.5722 19.2665 10.8569 19.3709C10.9343 19.3997 10.9749 19.3279 11.0355 19.3518C11.1129 19.3829 11.1902 19.3885 11.2668 19.3502C11.6056 19.3391 11.9015 19.1533 12.234 19.1126C12.5019 19.0807 12.7323 19.1844 12.7985 19.3869C12.8663 19.5926 12.7546 19.8191 12.5322 19.961C12.1335 20.2162 11.683 20.2528 11.2309 20.2911C11.0626 20.2528 10.8936 20.2664 10.7237 20.2903Z" fill="#100A00"/>
<path d="M23.275 16.8887C23.2615 16.8887 23.2479 16.8887 23.2352 16.8887C23.1004 16.8497 22.968 16.8624 22.8381 16.9087C22.6371 16.9087 22.4354 16.8935 22.2345 16.9183C22.126 16.943 22.0144 16.9127 21.906 16.9406C21.8868 16.9493 21.8757 16.9645 21.8709 16.9852C21.8103 17.0594 21.7672 16.9573 21.713 16.9693C21.6197 16.9765 21.5439 16.9246 21.4618 16.8935C21.3047 16.9525 21.2689 16.8018 21.217 16.7261C21.1477 16.624 21.1772 16.4949 21.2736 16.4095C21.4666 16.2389 21.6978 16.1488 21.9554 16.1464C22.0471 16.1456 22.1348 16.1416 22.2209 16.1105C22.2337 16.0962 22.2488 16.0914 22.2672 16.0962C22.2839 16.1018 22.2998 16.1097 22.3142 16.1193C22.4521 16.1488 22.5909 16.1376 22.7288 16.1265C22.744 16.1209 22.7575 16.1129 22.7711 16.1033C22.783 16.093 22.7942 16.0818 22.8046 16.0691C23.0924 16.0834 23.3811 16.0882 23.6657 16.1464C23.7263 16.1847 23.7997 16.1927 23.8619 16.2269C23.9703 16.3194 24.0485 16.4518 23.9926 16.5754C23.9105 16.758 23.7423 16.8584 23.5294 16.8537C23.448 16.8943 23.3548 16.8433 23.275 16.8887Z" fill="#100A00"/>
<path d="M2.096 16.9688C2.08245 16.9688 2.06889 16.9688 2.05614 16.9688C1.92138 16.9297 1.78902 16.9425 1.65905 16.9887C1.45812 16.9887 1.25638 16.9736 1.05545 16.9983C0.947007 17.023 0.835376 16.9927 0.726935 17.0206C0.707798 17.0294 0.696635 17.0445 0.691851 17.0652C0.631251 17.1394 0.588193 17.0373 0.533972 17.0493C0.440681 17.0565 0.364932 17.0046 0.282804 16.9736C0.125723 17.0326 0.0898413 16.8819 0.0380127 16.8061C-0.0313578 16.704 -0.00185606 16.5749 0.0946248 16.4896C0.287586 16.3189 0.518823 16.2288 0.776371 16.2264C0.868068 16.2256 0.955776 16.2216 1.04189 16.1905C1.05465 16.1762 1.0698 16.1714 1.08814 16.1762C1.10488 16.1818 1.12083 16.1897 1.13518 16.1993C1.27313 16.2288 1.41187 16.2177 1.54981 16.2065C1.56496 16.2009 1.57852 16.1929 1.59207 16.1834C1.60403 16.173 1.6152 16.1618 1.62556 16.1491C1.91341 16.1634 2.20205 16.1682 2.48671 16.2264C2.54731 16.2647 2.62067 16.2727 2.68286 16.307C2.79131 16.3995 2.86945 16.5318 2.81363 16.6554C2.7315 16.838 2.56326 16.9385 2.35036 16.9337C2.26903 16.9743 2.17574 16.9233 2.096 16.9688Z" fill="white"/>
<path d="M2.16485 18.8988C2.15135 18.9001 2.13786 18.9014 2.12516 18.9026C1.98728 18.8766 1.85675 18.902 1.73181 18.9605C1.53179 18.9797 1.32954 18.984 1.13189 19.0278C1.02631 19.0628 0.912296 19.0433 0.807025 19.0815C0.788815 19.092 0.779154 19.1082 0.776376 19.1293C0.723153 19.2089 0.670523 19.1114 0.617696 19.1285C0.52552 19.1446 0.445157 19.1002 0.360429 19.0772C0.209719 19.1509 0.159575 19.0043 0.100734 18.9339C0.0219115 18.839 0.0389124 18.7076 0.126783 18.6134C0.302524 18.4251 0.524073 18.3132 0.78021 18.2862C0.871409 18.2766 0.958333 18.2643 1.04108 18.2251C1.0524 18.2096 1.06702 18.2034 1.08574 18.2064C1.10294 18.2103 1.11958 18.2167 1.13478 18.2249C1.27491 18.241 1.41195 18.2166 1.54819 18.1923C1.56274 18.1853 1.57546 18.1761 1.58804 18.1653C1.59895 18.1538 1.609 18.1416 1.6181 18.1279C1.906 18.1147 2.19377 18.0918 2.4827 18.1225C2.54668 18.1548 2.62047 18.1557 2.68566 18.1839C2.80245 18.2656 2.89291 18.3898 2.84918 18.5182C2.78491 18.7078 2.62705 18.8239 2.41468 18.8395C2.33761 18.8878 2.23986 18.8459 2.16485 18.8988Z" fill="white"/>
<path d="M21.8701 18.6406C21.6683 18.5585 21.4243 18.5656 21.28 18.3615C21.229 18.2794 21.2529 18.1829 21.2306 18.0952C21.3342 17.8895 21.5272 17.7898 21.7521 17.8265C21.7537 17.8552 21.7768 17.8576 21.7975 17.864C21.8709 17.8671 21.945 17.8703 22.0184 17.8616C22.0343 17.8552 22.0487 17.848 22.0622 17.8376C22.1292 17.844 22.1986 17.8002 22.2632 17.848C22.2672 17.8687 22.2783 17.8831 22.2967 17.8927C22.3892 17.9261 22.4952 17.8775 22.5837 17.9397C22.6196 17.9429 22.6547 17.9461 22.6906 17.9493C22.7033 17.9604 22.7177 17.97 22.7328 17.9772C22.8102 17.9915 22.8883 17.9788 22.9649 17.9875C23.0159 17.9979 23.0669 18.021 23.1179 17.9867C23.1897 17.97 23.2009 18.0824 23.2742 18.0609C23.3245 18.0904 23.3883 18.0681 23.4369 18.1032C23.59 18.1151 23.7216 18.1845 23.8172 18.2953C23.9608 18.462 23.8451 18.7179 23.598 18.8072C23.4815 18.8423 23.3619 18.8152 23.2439 18.824C23.1738 18.8375 23.11 18.769 23.0382 18.808C22.9505 18.7753 22.8492 18.8304 22.7671 18.7634C22.7743 18.7586 22.7823 18.7538 22.7894 18.749C22.8261 18.745 22.862 18.7474 22.8867 18.7466C22.854 18.7403 22.8078 18.7522 22.7631 18.7403C22.6722 18.7171 22.5805 18.7267 22.4888 18.7331C22.4474 18.7283 22.4011 18.7363 22.3748 18.69C22.3118 18.6509 22.2472 18.6629 22.1818 18.6812C22.1252 18.6868 22.0686 18.6924 22.0224 18.6486C21.9737 18.6119 21.9219 18.6286 21.8701 18.6406Z" fill="#100A00"/>
<path d="M18.9748 9.1703C18.966 9.07621 19.0067 8.99329 19.0737 8.91515C19.226 8.73733 19.4484 8.63926 19.647 8.67594C20.1366 8.76604 20.6477 8.81388 21.083 9.09615C21.2808 9.22452 21.39 9.45336 21.3326 9.59769C21.2425 9.82254 21.0041 9.93338 20.7466 9.90627C20.2745 9.85524 19.8352 9.66626 19.3655 9.60566C19.1335 9.57536 18.9772 9.37363 18.9748 9.1703Z" fill="#100A00"/>
<path d="M16.8594 16.7732C16.9368 17.0674 16.9296 17.3736 16.9798 17.6718C16.9998 17.7372 17.0269 17.8041 16.9655 17.8631C16.8897 18.0864 16.8196 18.3081 16.7079 18.5218C16.6138 18.7028 16.4448 18.6781 16.3156 18.7466C16.2526 18.7801 16.1689 18.6645 16.1123 18.5824C15.9345 18.3232 15.8492 18.0154 15.8571 17.7284C15.8715 17.2332 15.9241 16.7293 16.0987 16.2557C16.1322 16.164 16.2112 16.0826 16.2853 16.0141C16.3491 15.9551 16.4217 15.979 16.4887 16.0396C16.6091 16.1504 16.692 16.2868 16.7789 16.4215C16.9192 16.5132 16.8459 16.6535 16.8594 16.7732Z" fill="white"/>
<path d="M11.4604 14.5908C11.6319 15.1513 11.5067 15.6967 11.3711 16.2405C11.34 16.3641 11.0307 16.589 10.8816 16.577C10.7141 16.5642 10.6479 16.4239 10.573 16.2915C10.4255 16.0308 10.4287 15.7326 10.3513 15.4551C10.3346 15.3961 10.3378 15.3211 10.3585 15.2637C10.4454 15.0261 10.4502 14.771 10.5283 14.531C10.5802 14.3723 10.6782 14.2615 10.7923 14.1634C10.978 14.0039 11.3687 14.1841 11.4206 14.4472C11.4301 14.4967 11.4126 14.5517 11.4604 14.5908Z" fill="white"/>
<path d="M6.28882 16.6982C6.25373 16.9334 6.31433 17.1686 6.28403 17.4078C6.2633 17.5689 6.22662 17.7252 6.18038 17.8759C6.08868 18.1765 5.95791 18.257 5.6597 18.1988C5.50102 18.1685 5.4468 18.0034 5.40933 17.8783C5.29132 17.4852 5.22832 17.0905 5.34474 16.6711C5.41012 16.435 5.46514 16.2102 5.62063 16.0156C5.77292 15.8243 5.8112 15.8227 5.97386 15.9933C6.13333 16.1599 6.1724 16.3816 6.26809 16.577C6.29839 16.6136 6.30556 16.6535 6.28882 16.6982Z" fill="white"/>
</g>
</svg>
