<svg width="226" height="36" viewBox="0 0 226 36" fill="none" xmlns="http://www.w3.org/2000/svg">
<path d="M26.9645 16.2733C26.9645 18.4809 26.6807 20.4757 26.113 22.2576C25.5453 24.0237 24.749 25.6005 23.724 26.9882C22.7149 28.3601 21.5085 29.5427 20.1051 30.5361C18.7017 31.5296 17.1643 32.3495 15.4928 32.9961C13.8213 33.6268 12.0394 34.0999 10.1472 34.4152C8.2707 34.7148 6.33903 34.8647 4.35217 34.8647C3.61104 34.8647 2.88568 34.8489 2.17608 34.8173C1.46649 34.77 0.74113 34.707 0 34.6281L0.662287 2.88568C2.39685 2.33377 4.17871 1.94744 6.00788 1.72668C7.85283 1.49014 9.682 1.37188 11.4954 1.37188C13.7503 1.37188 15.8239 1.71091 17.7162 2.38896C19.6084 3.06702 21.2405 4.04468 22.6124 5.32194C23.9842 6.59921 25.0486 8.16032 25.8055 10.0053C26.5782 11.8502 26.9645 13.9396 26.9645 16.2733ZM17.2668 17.7871C17.2825 16.9356 17.1879 16.1156 16.9829 15.3272C16.7937 14.5388 16.4704 13.8449 16.0131 13.2457C15.5716 12.6307 15.0039 12.1419 14.3101 11.7792C13.6163 11.4008 12.7884 11.1958 11.8265 11.1643L10.8804 25.8292C11.8265 25.6873 12.6859 25.3798 13.4586 24.9067C14.2313 24.4179 14.8936 23.8265 15.4455 23.1327C16.0131 22.4231 16.4468 21.6426 16.7464 20.7911C17.0618 19.9238 17.2352 19.0329 17.2668 18.1183V17.7871Z" fill="white"/>
<path d="M57.6426 18.3548C57.6426 19.7898 57.477 21.1774 57.1459 22.5177C56.8147 23.8423 56.3338 25.088 55.703 26.2549C55.088 27.4218 54.3311 28.4941 53.4323 29.4717C52.5493 30.4336 51.548 31.2615 50.4284 31.9553C49.3246 32.6491 48.1183 33.1932 46.8095 33.5874C45.5007 33.9658 44.113 34.1551 42.6465 34.1551C41.2273 34.1551 39.8712 33.9737 38.5782 33.611C37.3009 33.2484 36.1025 32.7438 34.9829 32.0972C33.8633 31.435 32.8463 30.6465 31.9317 29.7319C31.0329 28.8016 30.2602 27.7766 29.6137 26.657C28.9829 25.5217 28.4862 24.3075 28.1235 23.0145C27.7766 21.7214 27.6032 20.3732 27.6032 18.9698C27.6032 17.5979 27.7687 16.2576 28.0999 14.9488C28.431 13.6242 28.9041 12.3784 29.5191 11.2116C30.1498 10.0447 30.9067 8.9724 31.7898 7.99474C32.6728 7.01708 33.6583 6.17346 34.7464 5.46386C35.8502 4.75427 37.0407 4.20237 38.318 3.80815C39.5953 3.41393 40.9435 3.21682 42.3627 3.21682C44.6492 3.21682 46.7306 3.57162 48.6071 4.28121C50.4993 4.9908 52.1078 6.00788 53.4323 7.33246C54.7727 8.64126 55.8055 10.2339 56.5309 12.1104C57.272 13.9711 57.6426 16.0526 57.6426 18.3548ZM47.1406 18.9698C47.1406 18.2917 47.0381 17.6373 46.8331 17.0066C46.6439 16.3601 46.3601 15.7924 45.9816 15.3035C45.6032 14.7989 45.1301 14.3968 44.5624 14.0972C44.0105 13.7819 43.3719 13.6242 42.6465 13.6242C41.9054 13.6242 41.2431 13.7582 40.6597 14.0263C40.0762 14.2943 39.5716 14.6649 39.1459 15.138C38.7359 15.5953 38.4205 16.1393 38.1997 16.77C37.979 17.385 37.8686 18.0394 37.8686 18.7332C37.8686 19.3955 37.9632 20.0578 38.1524 20.7201C38.3417 21.3824 38.6255 21.9816 39.0039 22.5177C39.3824 23.0539 39.8476 23.4875 40.3995 23.8187C40.9672 24.1498 41.6216 24.3154 42.3627 24.3154C43.1038 24.3154 43.7661 24.1735 44.3495 23.8896C44.9488 23.59 45.4534 23.1958 45.8633 22.707C46.2733 22.2024 46.5887 21.6268 46.8095 20.9803C47.0302 20.3338 47.1406 19.6636 47.1406 18.9698Z" fill="white"/>
<path d="M83.9685 1.22996L83.7319 11.2589L76.6833 11.5427L74.8857 33.9658L64.9041 34.4862L64.9514 12.0631L57.9028 12.4415L58.1866 1.27727L83.9685 1.22996Z" fill="white"/>
<path d="M109.49 22.4704C109.49 24.6307 109.112 26.523 108.355 28.1472C107.614 29.7556 106.589 31.0959 105.28 32.1682C103.987 33.2405 102.465 34.0447 100.715 34.5808C98.9803 35.117 97.1117 35.385 95.1091 35.385C94.3364 35.385 93.4849 35.2825 92.5545 35.0775C91.64 34.8725 90.7096 34.6202 89.7635 34.3206C88.8174 34.0053 87.9028 33.6741 87.0197 33.3272C86.1524 32.9645 85.3798 32.6255 84.7017 32.3101L85.7425 22.565C87.0828 23.3693 88.5651 23.9842 90.1892 24.41C91.8292 24.82 93.4376 25.025 95.0145 25.025C95.3141 25.025 95.6768 25.0171 96.1025 25.0013C96.5283 24.9698 96.9304 24.8988 97.3088 24.7884C97.703 24.6623 98.0342 24.4809 98.3022 24.2444C98.5703 24.0079 98.7043 23.6689 98.7043 23.2273C98.7043 22.9277 98.6097 22.6754 98.4205 22.4704C98.2313 22.2497 97.9869 22.0762 97.6873 21.9501C97.3877 21.8081 97.0486 21.7057 96.6702 21.6426C96.2917 21.5637 95.9212 21.5085 95.5585 21.477C95.1958 21.4455 94.8568 21.4297 94.5414 21.4297C94.226 21.4297 93.9737 21.4297 93.7845 21.4297C92.4284 21.4297 91.1905 21.1932 90.071 20.7201C88.9672 20.247 88.0131 19.5926 87.2089 18.7569C86.4205 17.9054 85.8055 16.9041 85.364 15.753C84.9225 14.5861 84.7017 13.3246 84.7017 11.9685C84.7017 10.1078 85.0723 8.44415 85.8134 6.97766C86.5703 5.4954 87.5716 4.24179 88.8174 3.21682C90.0788 2.17608 91.5217 1.37976 93.1459 0.827858C94.7701 0.275953 96.4494 0 98.184 0C98.9566 0 99.753 0.0315374 100.573 0.0946124C101.393 0.141919 102.205 0.236531 103.009 0.378449C103.829 0.520368 104.626 0.701708 105.398 0.92247C106.171 1.14323 106.904 1.41919 107.598 1.75033L106.699 11.3535C105.627 10.9908 104.499 10.6912 103.317 10.4547C102.15 10.2024 101.007 10.0762 99.887 10.0762C99.682 10.0762 99.4139 10.0841 99.0828 10.0999C98.7674 10.0999 98.4284 10.1235 98.0657 10.1708C97.7188 10.2024 97.364 10.2576 97.0013 10.3364C96.6386 10.4152 96.3154 10.5256 96.0315 10.6675C95.7477 10.7937 95.5191 10.9671 95.3456 11.1879C95.1721 11.4087 95.0933 11.6689 95.1091 11.9685C95.1248 12.3154 95.251 12.5992 95.4875 12.82C95.7398 13.025 96.0552 13.1905 96.4336 13.3167C96.8279 13.4271 97.2536 13.5059 97.7109 13.5532C98.184 13.6005 98.6492 13.6321 99.1064 13.6478C99.5637 13.6478 99.9895 13.6478 100.384 13.6478C100.778 13.6321 101.101 13.6399 101.353 13.6715C102.615 13.7503 103.75 14.0184 104.76 14.4757C105.769 14.933 106.62 15.5401 107.314 16.297C108.024 17.0539 108.56 17.9606 108.922 19.0171C109.301 20.0578 109.49 21.2089 109.49 22.4704Z" fill="white"/>
<path d="M135.438 1.22996L135.201 11.2589L128.152 11.5427L126.355 33.9658L116.373 34.4862L116.421 12.0631L109.372 12.4415L109.656 1.27727L135.438 1.22996Z" fill="white"/>
<path d="M165.028 18.3548C165.028 19.7898 164.862 21.1774 164.531 22.5177C164.2 23.8423 163.719 25.088 163.088 26.2549C162.473 27.4218 161.716 28.4941 160.817 29.4717C159.934 30.4336 158.933 31.2615 157.813 31.9553C156.71 32.6491 155.503 33.1932 154.194 33.5874C152.886 33.9658 151.498 34.1551 150.032 34.1551C148.612 34.1551 147.256 33.9737 145.963 33.611C144.686 33.2484 143.488 32.7438 142.368 32.0972C141.248 31.435 140.231 30.6465 139.317 29.7319C138.418 28.8016 137.645 27.7766 136.999 26.657C136.368 25.5217 135.871 24.3075 135.509 23.0145C135.162 21.7214 134.988 20.3732 134.988 18.9698C134.988 17.5979 135.154 16.2576 135.485 14.9488C135.816 13.6242 136.289 12.3784 136.904 11.2116C137.535 10.0447 138.292 8.9724 139.175 7.99474C140.058 7.01708 141.043 6.17346 142.131 5.46386C143.235 4.75427 144.426 4.20237 145.703 3.80815C146.98 3.41393 148.329 3.21682 149.748 3.21682C152.034 3.21682 154.116 3.57162 155.992 4.28121C157.884 4.9908 159.493 6.00788 160.817 7.33246C162.158 8.64126 163.191 10.2339 163.916 12.1104C164.657 13.9711 165.028 16.0526 165.028 18.3548ZM154.526 18.9698C154.526 18.2917 154.423 17.6373 154.218 17.0066C154.029 16.3601 153.745 15.7924 153.367 15.3035C152.988 14.7989 152.515 14.3968 151.947 14.0972C151.396 13.7819 150.757 13.6242 150.032 13.6242C149.29 13.6242 148.628 13.7582 148.045 14.0263C147.461 14.2943 146.957 14.6649 146.531 15.138C146.121 15.5953 145.806 16.1393 145.585 16.77C145.364 17.385 145.254 18.0394 145.254 18.7332C145.254 19.3955 145.348 20.0578 145.537 20.7201C145.727 21.3824 146.011 21.9816 146.389 22.5177C146.767 23.0539 147.233 23.4875 147.785 23.8187C148.352 24.1498 149.007 24.3154 149.748 24.3154C150.489 24.3154 151.151 24.1735 151.735 23.8896C152.334 23.59 152.838 23.1958 153.248 22.707C153.658 22.2024 153.974 21.6268 154.194 20.9803C154.415 20.3338 154.526 19.6636 154.526 18.9698Z" fill="white"/>
<path d="M194.405 12.2523C194.405 13.4823 194.294 14.6018 194.074 15.611C193.869 16.6045 193.537 17.5191 193.08 18.3548C192.623 19.1905 192.032 19.9632 191.306 20.6728C190.581 21.3824 189.706 22.0604 188.681 22.707L194.31 32.7359L183.666 34.8173L180.024 24.7411L177.091 24.8357L176.665 34.6754H166.494C166.573 31.0802 166.644 27.5007 166.707 23.9369C166.786 20.3732 166.873 16.7937 166.967 13.1984C166.999 11.385 167.03 9.58739 167.062 7.80552C167.093 6.02365 167.156 4.22602 167.251 2.41262C168.355 2.00263 169.443 1.6636 170.515 1.39553C171.587 1.12746 172.66 0.92247 173.732 0.780552C174.82 0.622865 175.916 0.520368 177.02 0.473062C178.139 0.409987 179.283 0.378449 180.449 0.378449C182.247 0.378449 183.982 0.630749 185.653 1.13535C187.34 1.62418 188.831 2.36531 190.124 3.35874C191.417 4.35217 192.449 5.59001 193.222 7.07227C194.011 8.55453 194.405 10.2812 194.405 12.2523ZM183.808 13.0092C183.808 12.3469 183.714 11.7398 183.524 11.1879C183.351 10.636 183.083 10.1629 182.72 9.76873C182.373 9.35874 181.932 9.04336 181.396 8.8226C180.875 8.58607 180.26 8.46781 179.551 8.46781C179.235 8.46781 178.928 8.49146 178.628 8.53876C178.329 8.5703 178.037 8.62549 177.753 8.70434L177.375 17.5033H177.942C178.62 17.5033 179.306 17.4166 180 17.2431C180.71 17.0696 181.34 16.8016 181.892 16.4389C182.46 16.0762 182.917 15.611 183.264 15.0434C183.627 14.4757 183.808 13.7976 183.808 13.0092Z" fill="white"/>
<path d="M225.414 3.0276L212.405 21.1932L211.79 36H200.578L200.862 21.2878L194.097 3.73719L206.16 2.22339L208.053 12.4415L214.06 2.22339L225.414 3.0276Z" fill="white"/>
<path d="M163.206 18.7535C155.886 18.7535 149.96 24.6759 149.96 31.9919C149.96 24.6759 144.035 18.7535 136.715 18.7535C144.035 18.7535 149.96 12.8311 149.96 5.51514C149.96 12.8311 155.886 18.7535 163.206 18.7535Z" fill="#FC9B00"/>
</svg>
