<svg width="135" height="36" viewBox="0 0 135 36" fill="none" xmlns="http://www.w3.org/2000/svg">
<path d="M50.7662 18.5153C50.7662 19.4492 50.6462 20.2931 50.406 21.0469C50.1659 21.7941 49.829 22.4612 49.3954 23.0482C48.9684 23.6286 48.4581 24.1289 47.8644 24.5492C47.2707 24.9694 46.6202 25.3163 45.9131 25.5898C45.206 25.8567 44.4522 26.0568 43.6517 26.1902C42.8578 26.317 42.0406 26.3804 41.2001 26.3804C40.8865 26.3804 40.5797 26.3737 40.2795 26.3603C39.9793 26.3403 39.6724 26.3136 39.3589 26.2803L39.6391 12.8516C40.3729 12.6182 41.1267 12.4547 41.9005 12.3613C42.681 12.2613 43.4549 12.2112 44.222 12.2112C45.176 12.2112 46.0532 12.3547 46.8537 12.6415C47.6542 12.9284 48.3447 13.342 48.9251 13.8823C49.5054 14.4227 49.9557 15.0831 50.2759 15.8636C50.6028 16.6441 50.7662 17.528 50.7662 18.5153ZM46.6636 19.1557C46.6703 18.7955 46.6302 18.4486 46.5435 18.115C46.4635 17.7815 46.3267 17.488 46.1333 17.2345C45.9465 16.9743 45.7063 16.7675 45.4128 16.6141C45.1193 16.454 44.769 16.3672 44.3621 16.3539L43.9619 22.5579C44.3621 22.4979 44.7257 22.3678 45.0526 22.1676C45.3794 21.9608 45.6596 21.7107 45.8931 21.4172C46.1333 21.117 46.3167 20.7868 46.4435 20.4265C46.5769 20.0596 46.6503 19.6827 46.6636 19.2958V19.1557Z" fill="white"/>
<path d="M63.7446 19.3959C63.7446 20.0029 63.6746 20.59 63.5345 21.157C63.3944 21.7174 63.1909 22.2444 62.9241 22.738C62.6639 23.2317 62.3437 23.6853 61.9635 24.0989C61.5899 24.5058 61.1663 24.856 60.6926 25.1496C60.2257 25.4431 59.7153 25.6732 59.1616 25.84C58.608 26.0001 58.0209 26.0802 57.4005 26.0802C56.8001 26.0802 56.2264 26.0034 55.6794 25.85C55.1391 25.6966 54.6321 25.4831 54.1584 25.2096C53.6848 24.9294 53.2545 24.5959 52.8676 24.209C52.4873 23.8154 52.1605 23.3818 51.887 22.9081C51.6201 22.4278 51.41 21.9141 51.2566 21.3671C51.1098 20.8201 51.0364 20.2497 51.0364 19.656C51.0364 19.0757 51.1065 18.5086 51.2465 17.9549C51.3866 17.3946 51.5868 16.8676 51.8469 16.3739C52.1138 15.8803 52.434 15.4266 52.8076 15.013C53.1811 14.5994 53.5981 14.2425 54.0584 13.9423C54.5253 13.6422 55.029 13.4087 55.5693 13.2419C56.1097 13.0751 56.68 12.9917 57.2804 12.9917C58.2477 12.9917 59.1283 13.1418 59.9221 13.442C60.7227 13.7422 61.4031 14.1725 61.9635 14.7329C62.5305 15.2865 62.9674 15.9603 63.2743 16.7542C63.5878 17.5413 63.7446 18.4219 63.7446 19.3959ZM59.3017 19.656C59.3017 19.3692 59.2584 19.0923 59.1717 18.8255C59.0916 18.552 58.9715 18.3118 58.8114 18.105C58.6513 17.8916 58.4512 17.7214 58.211 17.5947C57.9776 17.4613 57.7074 17.3946 57.4005 17.3946C57.087 17.3946 56.8068 17.4513 56.56 17.5647C56.3131 17.6781 56.0997 17.8349 55.9196 18.035C55.7461 18.2284 55.6127 18.4586 55.5193 18.7254C55.4259 18.9856 55.3792 19.2624 55.3792 19.556C55.3792 19.8361 55.4192 20.1163 55.4993 20.3965C55.5793 20.6767 55.6994 20.9302 55.8595 21.157C56.0196 21.3838 56.2164 21.5673 56.4499 21.7073C56.6901 21.8474 56.9669 21.9175 57.2804 21.9175C57.594 21.9175 57.8742 21.8574 58.121 21.7374C58.3745 21.6106 58.5879 21.4438 58.7614 21.237C58.9348 21.0236 59.0683 20.7801 59.1616 20.5066C59.255 20.2331 59.3017 19.9495 59.3017 19.656Z" fill="white"/>
<path d="M74.8818 12.1512L74.7817 16.3939L71.7998 16.514L71.0393 26.0001L66.8166 26.2203L66.8366 16.7341L63.8547 16.8942L63.9747 12.1712L74.8818 12.1512Z" fill="white"/>
<path d="M85.6787 21.137C85.6787 22.0509 85.5186 22.8514 85.1984 23.5385C84.8849 24.219 84.4513 24.786 83.8976 25.2396C83.3506 25.6932 82.7068 26.0335 81.9663 26.2603C81.2325 26.4871 80.442 26.6005 79.5948 26.6005C79.2679 26.6005 78.9077 26.5571 78.5141 26.4704C78.1272 26.3837 77.7336 26.277 77.3334 26.1502C76.9331 26.0168 76.5462 25.8767 76.1726 25.7299C75.8057 25.5765 75.4788 25.4331 75.192 25.2997L75.6323 21.177C76.1993 21.5172 76.8264 21.7774 77.5135 21.9575C78.2073 22.131 78.8877 22.2177 79.5548 22.2177C79.6815 22.2177 79.835 22.2143 80.0151 22.2077C80.1952 22.1943 80.3653 22.1643 80.5254 22.1176C80.6922 22.0642 80.8323 21.9875 80.9457 21.8875C81.0591 21.7874 81.1158 21.644 81.1158 21.4572C81.1158 21.3304 81.0758 21.2237 80.9957 21.137C80.9157 21.0436 80.8123 20.9702 80.6855 20.9168C80.5588 20.8568 80.4153 20.8134 80.2552 20.7868C80.0951 20.7534 79.9384 20.7301 79.7849 20.7167C79.6315 20.7034 79.4881 20.6967 79.3547 20.6967C79.2212 20.6967 79.1145 20.6967 79.0345 20.6967C78.4608 20.6967 77.9371 20.5966 77.4634 20.3965C76.9965 20.1964 76.5929 19.9195 76.2527 19.566C75.9191 19.2057 75.6589 18.7821 75.4722 18.2952C75.2854 17.8015 75.192 17.2678 75.192 16.6941C75.192 15.9069 75.3487 15.2032 75.6623 14.5828C75.9825 13.9557 76.4061 13.4253 76.9331 12.9917C77.4668 12.5515 78.0772 12.2146 78.7643 11.9811C79.4514 11.7476 80.1618 11.6309 80.8957 11.6309C81.2225 11.6309 81.5594 11.6442 81.9063 11.6709C82.2532 11.6909 82.5967 11.7309 82.937 11.791C83.2839 11.851 83.6207 11.9277 83.9476 12.0211C84.2745 12.1145 84.5847 12.2312 84.8782 12.3713L84.498 16.434C84.0443 16.2805 83.5674 16.1538 83.0671 16.0537C82.5734 15.947 82.0898 15.8936 81.6161 15.8936C81.5294 15.8936 81.416 15.8969 81.2759 15.9036C81.1425 15.9036 80.9991 15.9136 80.8456 15.9336C80.6989 15.947 80.5488 15.9703 80.3953 16.0037C80.2419 16.037 80.1051 16.0837 79.9851 16.1438C79.865 16.1971 79.7683 16.2705 79.6949 16.3639C79.6215 16.4573 79.5881 16.5674 79.5948 16.6941C79.6015 16.8409 79.6549 16.961 79.7549 17.0544C79.8617 17.1411 79.9951 17.2111 80.1552 17.2645C80.3219 17.3112 80.5021 17.3445 80.6955 17.3646C80.8957 17.3846 81.0924 17.3979 81.2859 17.4046C81.4794 17.4046 81.6595 17.4046 81.8263 17.4046C81.993 17.3979 82.1298 17.4012 82.2365 17.4146C82.7702 17.4479 83.2505 17.5613 83.6774 17.7548C84.1044 17.9483 84.4646 18.2051 84.7581 18.5253C85.0583 18.8455 85.2851 19.2291 85.4386 19.676C85.5987 20.1163 85.6787 20.6033 85.6787 21.137Z" fill="white"/>
<path d="M96.6558 12.1512L96.5557 16.3939L93.5738 16.514L92.8133 26.0001L88.5906 26.2203L88.6106 16.7341L85.6287 16.8942L85.7488 12.1712L96.6558 12.1512Z" fill="white"/>
<path d="M109.174 19.3959C109.174 20.0029 109.104 20.59 108.964 21.157C108.824 21.7174 108.62 22.2444 108.353 22.738C108.093 23.2317 107.773 23.6853 107.393 24.0989C107.019 24.5058 106.596 24.856 106.122 25.1496C105.655 25.4431 105.145 25.6732 104.591 25.84C104.037 26.0001 103.45 26.0802 102.83 26.0802C102.229 26.0802 101.656 26.0034 101.109 25.85C100.568 25.6966 100.061 25.4831 99.5877 25.2096C99.1141 24.9294 98.6838 24.5959 98.2969 24.209C97.9166 23.8154 97.5897 23.3818 97.3162 22.9081C97.0494 22.4278 96.8393 21.9141 96.6858 21.3671C96.5391 20.8201 96.4657 20.2497 96.4657 19.656C96.4657 19.0757 96.5357 18.5086 96.6758 17.9549C96.8159 17.3946 97.016 16.8676 97.2762 16.3739C97.543 15.8803 97.8633 15.4266 98.2368 15.013C98.6104 14.5994 99.0273 14.2425 99.4876 13.9423C99.9546 13.6422 100.458 13.4087 100.999 13.2419C101.539 13.0751 102.109 12.9917 102.71 12.9917C103.677 12.9917 104.558 13.1418 105.351 13.442C106.152 13.7422 106.832 14.1725 107.393 14.7329C107.96 15.2865 108.397 15.9603 108.704 16.7542C109.017 17.5413 109.174 18.4219 109.174 19.3959ZM104.731 19.656C104.731 19.3692 104.688 19.0923 104.601 18.8255C104.521 18.552 104.401 18.3118 104.241 18.105C104.081 17.8916 103.88 17.7214 103.64 17.5947C103.407 17.4613 103.137 17.3946 102.83 17.3946C102.516 17.3946 102.236 17.4513 101.989 17.5647C101.742 17.6781 101.529 17.8349 101.349 18.035C101.175 18.2284 101.042 18.4586 100.949 18.7254C100.855 18.9856 100.808 19.2624 100.808 19.556C100.808 19.8361 100.849 20.1163 100.929 20.3965C101.009 20.6767 101.129 20.9302 101.289 21.157C101.449 21.3838 101.646 21.5673 101.879 21.7073C102.119 21.8474 102.396 21.9175 102.71 21.9175C103.023 21.9175 103.303 21.8574 103.55 21.7374C103.804 21.6106 104.017 21.4438 104.191 21.237C104.364 21.0236 104.498 20.7801 104.591 20.5066C104.684 20.2331 104.731 19.9495 104.731 19.656Z" fill="white"/>
<path d="M121.602 16.8142C121.602 17.3345 121.555 17.8082 121.462 18.2351C121.375 18.6554 121.235 19.0423 121.042 19.3959C120.848 19.7494 120.598 20.0763 120.291 20.3765C119.984 20.6767 119.614 20.9635 119.18 21.237L121.562 25.4798L117.059 26.3603L115.518 22.0976L114.277 22.1376L114.097 26.3003H109.794C109.828 24.7793 109.858 23.265 109.884 21.7574C109.918 20.2497 109.954 18.7354 109.994 17.2145C110.008 16.4473 110.021 15.6868 110.034 14.933C110.048 14.1792 110.074 13.4187 110.114 12.6515C110.581 12.4781 111.042 12.3346 111.495 12.2212C111.949 12.1078 112.403 12.0211 112.856 11.9611C113.317 11.8944 113.78 11.851 114.247 11.831C114.721 11.8043 115.204 11.791 115.698 11.791C116.459 11.791 117.192 11.8977 117.899 12.1112C118.613 12.318 119.244 12.6315 119.791 13.0518C120.338 13.472 120.775 13.9957 121.102 14.6228C121.435 15.2499 121.602 15.9803 121.602 16.8142ZM117.119 17.1344C117.119 16.8542 117.079 16.5974 116.999 16.3639C116.926 16.1304 116.812 15.9303 116.659 15.7635C116.512 15.5901 116.325 15.4567 116.098 15.3633C115.878 15.2632 115.618 15.2132 115.318 15.2132C115.184 15.2132 115.054 15.2232 114.928 15.2432C114.801 15.2565 114.677 15.2799 114.557 15.3132L114.397 19.0356H114.637C114.924 19.0356 115.214 18.9989 115.508 18.9256C115.808 18.8522 116.075 18.7388 116.308 18.5853C116.549 18.4319 116.742 18.2351 116.889 17.995C117.042 17.7548 117.119 17.468 117.119 17.1344Z" fill="white"/>
<path d="M134.72 12.9117L129.217 20.5966L128.957 26.8607H124.214L124.334 20.6367L121.472 13.2119L126.575 12.5715L127.376 16.8942L129.917 12.5715L134.72 12.9117Z" fill="white"/>
<path d="M108.403 19.5763C105.306 19.5763 102.799 22.0831 102.799 25.1799C102.799 22.0831 100.293 19.5763 97.1958 19.5763C100.293 19.5763 102.799 17.0694 102.799 13.9727C102.799 17.0694 105.306 19.5763 108.403 19.5763Z" fill="#FC9B00"/>
<path d="M8.18315 33.6766H8.13373V32.4438C8.1955 32.9369 8.18315 33.3561 8.18315 33.6766Z" fill="#FC9B00"/>
<path d="M11.5435 33.6801V35.5045H1.90655V33.6924H3.94513C3.94513 32.9651 4.06868 31.4611 1.69652 30.2161C-0.663289 28.971 0.127432 27.2082 0.127432 27.2082C0.349822 28.2313 0.967573 29.045 3.05557 30.0065C3.47564 30.2037 3.82158 30.4749 4.10575 30.7708V28.9833C4.56288 29.2175 4.94589 29.4518 5.26712 29.6983V33.6924H6.14433V30.4996C7.1945 31.7323 7.07095 32.9404 7.07095 33.6924H8.1829C8.1829 33.3719 8.19526 32.9404 8.13348 32.4596C8.047 31.8556 7.83696 31.1529 7.3057 30.438C7.02153 30.0558 6.63853 29.6613 6.14433 29.2668C5.88487 29.0696 5.60071 28.8724 5.26712 28.6751C5.1065 28.5765 4.92118 28.4779 4.73585 28.3793C4.50111 28.256 4.30343 28.1327 4.10575 28.0095C3.05557 27.3191 2.54902 26.5671 2.32663 25.8768C1.94362 24.7304 2.36369 23.7935 2.36369 23.7935C2.57373 24.7673 3.01851 25.6179 4.10575 26.4809V23.6209L5.26712 22.6963V27.2575C5.53893 27.4177 5.8231 27.5657 6.14433 27.7259V22.1909L7.3057 21.1431V28.3053C7.61457 28.4902 7.88638 28.6998 8.13348 28.9217V20.6377L9.29486 19.4419V30.401C10.1844 32.0035 10.2956 33.6677 10.2956 33.6677H11.5435V33.6801Z" fill="#FC9B00"/>
<path d="M5.31663 33.6748H5.26721V33.2803C5.31663 33.5268 5.31663 33.6748 5.31663 33.6748Z" fill="#FC9B00"/>
<path d="M29.7175 30.2026C27.3453 31.4477 27.4689 32.9516 27.4689 33.679H29.4951V35.5034H19.8705V33.6913H21.1184C21.1184 33.6913 21.2172 32.0887 22.0697 30.5108V23.6321L23.2311 22.7076V28.9699C23.4906 28.7233 23.7747 28.5014 24.1083 28.3042V22.1898L25.2697 21.142V27.7371C25.5662 27.5892 25.838 27.4413 26.0975 27.2934V20.6489L27.2588 19.4531V26.5291C28.3832 25.6538 28.8403 24.7909 29.0627 23.7924C29.0627 23.7924 29.4827 24.7169 29.0997 25.8757C28.865 26.566 28.3461 27.3427 27.2712 28.033C27.0982 28.144 26.9006 28.2549 26.6905 28.3658C26.4805 28.4768 26.2952 28.5877 26.1098 28.6864C25.801 28.8713 25.5291 29.0685 25.282 29.2534C24.7878 29.6356 24.4048 30.03 24.1207 30.4245C23.367 31.4477 23.2558 32.4339 23.2435 33.1612C23.2435 33.3584 23.2435 33.531 23.2435 33.679H24.3554C24.3554 32.9393 24.2319 31.7189 25.282 30.4862V33.679H26.1098V29.7219C26.4311 29.4753 26.8141 29.2288 27.2712 29.0069V30.8313C27.5554 30.5108 27.926 30.215 28.3708 30.0054C30.4588 29.0439 31.0765 28.2302 31.2989 27.2071C31.2742 27.2071 32.0649 28.9699 29.7175 30.2026Z" fill="#FC9B00"/>
<path d="M29.458 16.7302V17.8274H20.0929V16.7549L21.7979 16.1878C21.7979 16.1878 21.7362 12.28 17.9185 9.67894C18.042 9.70359 22.1562 10.5295 23.0581 16.1878H23.9477C23.9477 16.1878 23.5647 10.2707 18.425 7.28742C18.598 7.3244 24.0836 8.56947 25.1461 16.1878H26.0234C26.0234 16.1878 25.3562 8.26129 18.9933 5.10547C18.9933 5.10547 25.9616 6.48614 27.16 16.1878L29.458 16.7302Z" fill="#FC9B00"/>
<path d="M1.90631 16.7297V17.8269H11.2714V16.7544L9.56643 16.1873C9.56643 16.1873 9.6282 12.2795 13.4459 9.67845C13.3224 9.70311 9.20813 10.529 8.30621 16.1873H7.41665C7.41665 16.1873 7.79966 10.2702 12.9393 7.28693C12.7664 7.32392 7.28075 8.56898 6.21821 16.1873H5.34101C5.34101 16.1873 6.00818 8.2608 12.371 5.10498C12.371 5.10498 5.40278 6.48565 4.20435 16.1873L1.90631 16.7297Z" fill="#FC9B00"/>
<path d="M18.1781 5.02043C16.8808 5.02043 15.8306 6.06826 15.8306 7.36264C15.8306 6.06826 14.7804 5.02043 13.4832 5.02043C14.7804 5.02043 15.8306 3.9726 15.8306 2.67822C15.8306 3.9726 16.8808 5.02043 18.1781 5.02043Z" fill="white"/>
<path d="M21.0447 1.59024C20.1674 1.59024 19.4509 2.30523 19.4509 3.18047C19.4509 2.30523 18.7343 1.59024 17.8571 1.59024C18.7343 1.59024 19.4509 0.875247 19.4509 0C19.4509 0.875247 20.1674 1.59024 21.0447 1.59024Z" fill="#FC9B00"/>
</svg>
