<svg width="110" height="124" viewBox="0 0 110 124" fill="none" xmlns="http://www.w3.org/2000/svg">
<path d="M28.58 117.628H28.4073V113.322C28.6231 115.045 28.58 116.508 28.58 117.628Z" fill="#FC9B00"/>
<path d="M40.3171 117.628V124H6.6586V117.671H13.7787C13.7787 115.131 14.2102 109.878 5.92501 105.529C-2.31701 101.181 0.444712 95.0236 0.444712 95.0236C1.22145 98.5973 3.37905 101.439 10.6717 104.797C12.1389 105.486 13.3472 106.433 14.3396 107.467V101.224C15.9363 102.042 17.274 102.86 18.3959 103.721V117.671H21.4597V106.519C25.1276 110.825 24.6961 115.044 24.6961 117.671H28.5798C28.5798 116.551 28.623 115.044 28.4072 113.365C28.1051 111.256 27.3715 108.801 25.516 106.304C24.5235 104.969 23.1858 103.592 21.4597 102.214C20.5535 101.525 19.561 100.836 18.3959 100.147C17.835 99.8028 17.1877 99.4584 16.5404 99.1139C15.7205 98.6834 15.0301 98.2528 14.3396 97.8223C10.6717 95.4111 8.9025 92.7848 8.12576 90.3736C6.78805 86.3695 8.25522 83.0973 8.25522 83.0973C8.9888 86.4987 10.5423 89.4695 14.3396 92.4834V82.4945L18.3959 79.2653V95.1959C19.3453 95.7556 20.3378 96.2723 21.4597 96.832V77.5L25.516 73.8403V98.8556C26.5948 99.5014 27.5442 100.233 28.4072 101.008V72.075L32.4635 67.8987V106.175C35.5704 111.772 35.9588 117.585 35.9588 117.585H40.3171V117.628Z" fill="#FC9B00"/>
<path d="M18.5687 117.628H18.3961V116.25C18.5687 117.111 18.5687 117.628 18.5687 117.628Z" fill="#FC9B00"/>
<path d="M103.794 105.486C95.5087 109.835 95.9402 115.087 95.9402 117.628H103.017V124H69.4017V117.671H73.7601C73.7601 117.671 74.1053 112.074 77.0828 106.562V82.5374L81.1391 79.3083V101.18C82.0453 100.319 83.0378 99.5444 84.2029 98.8555V77.4999L88.2591 73.8402V96.8749C89.2948 96.3583 90.2441 95.8416 91.1503 95.3249V72.118L95.2066 67.9416V92.6555C99.1334 89.5985 100.73 86.5846 101.507 83.0971C101.507 83.0971 102.974 86.3263 101.636 90.3735C100.816 92.7846 99.004 95.4971 95.2498 97.9083C94.6456 98.2958 93.9552 98.6833 93.2216 99.0708C92.488 99.4583 91.8408 99.8458 91.1935 100.19C90.1147 100.836 89.1653 101.525 88.3023 102.171C86.5762 103.505 85.2385 104.883 84.246 106.261C81.6137 109.835 81.2254 113.279 81.1822 115.819C81.1822 116.508 81.1822 117.111 81.1822 117.628H85.0659C85.0659 115.044 84.6344 110.782 88.3023 106.476V117.628H91.1935V103.807C92.3154 102.946 93.6531 102.085 95.2498 101.31V107.682C96.2423 106.562 97.5368 105.529 99.0903 104.797C106.383 101.439 108.541 98.5971 109.317 95.0235C109.231 95.0235 111.993 101.18 103.794 105.486Z" fill="#FC9B00"/>
<path d="M102.888 58.4264V62.2583H70.1784V58.5125L76.1333 56.5319C76.1333 56.5319 75.9176 42.8833 62.5836 33.7986C63.0151 33.8847 77.3847 36.7694 80.5348 56.5319H83.6418C83.6418 56.5319 82.3041 35.8653 64.3529 25.4458C64.957 25.575 84.1165 29.9236 87.8275 56.5319H90.8913C90.8913 56.5319 88.5611 28.8472 66.3378 17.825C66.3378 17.825 90.6756 22.6472 94.8613 56.5319L102.888 58.4264Z" fill="#FC9B00"/>
<path d="M6.65881 58.4264V62.2583H39.368V58.5125L33.413 56.5319C33.413 56.5319 33.6288 42.8833 46.9628 33.7986C46.5312 33.8847 32.1616 36.7694 29.0115 56.5319H25.9046C25.9046 56.5319 27.2423 35.8653 45.1935 25.4458C44.5894 25.575 25.4299 29.9236 21.7189 56.5319H18.6551C18.6551 56.5319 20.9853 28.8472 43.2085 17.825C43.2085 17.825 18.8708 22.6472 14.6851 56.5319L6.65881 58.4264Z" fill="#FC9B00"/>
<path d="M63.4897 17.5234C58.9587 17.5234 55.2908 21.1831 55.2908 25.704C55.2908 21.1831 51.6229 17.5234 47.0919 17.5234C51.6229 17.5234 55.2908 13.8637 55.2908 9.34285C55.2908 13.8637 58.9587 17.5234 63.4897 17.5234Z" fill="white"/>
<path d="M73.5009 5.55417C70.4372 5.55417 67.9343 8.05139 67.9343 11.1083C67.9343 8.05139 65.4315 5.55417 62.3677 5.55417C65.4315 5.55417 67.9343 3.05694 67.9343 0C67.9343 3.05694 70.4372 5.55417 73.5009 5.55417Z" fill="#FC9B00"/>
</svg>
