<svg width="20" height="20" viewBox="0 0 20 20" fill="none" xmlns="http://www.w3.org/2000/svg">
<path fill-rule="evenodd" clip-rule="evenodd" d="M14.3637 0.181641C17.3761 0.181641 19.8182 2.62373 19.8182 5.63619V14.3635C19.8182 17.3759 17.3761 19.818 14.3637 19.818H5.63643C2.62397 19.818 0.181885 17.3759 0.181885 14.3635L0.181885 5.63619C0.181885 2.62373 2.62397 0.181641 5.63643 0.181641L14.3637 0.181641ZM14.3637 2.36346L5.63643 2.36346C3.82896 2.36346 2.3637 3.82871 2.3637 5.63619L2.3637 14.3635C2.3637 16.171 3.82896 17.6362 5.63643 17.6362H14.3637C16.1712 17.6362 17.6364 16.171 17.6364 14.3635V5.63619C17.6364 3.82871 16.1712 2.36346 14.3637 2.36346ZM10.0001 5.63619C12.41 5.63619 14.3637 7.58985 14.3637 9.99982C14.3637 12.4097 12.41 14.3635 10.0001 14.3635C7.5901 14.3635 5.63643 12.4097 5.63643 9.99982C5.63643 7.58985 7.5901 5.63619 10.0001 5.63619ZM10.0001 7.818C8.79505 7.818 7.81825 8.7948 7.81825 9.99982C7.81825 11.2048 8.79505 12.1816 10.0001 12.1816C11.2051 12.1816 12.1819 11.2048 12.1819 9.99982C12.1819 8.7948 11.2051 7.818 10.0001 7.818ZM14.9092 3.99982C15.5117 3.99982 16.0001 4.48824 16.0001 5.09073C16.0001 5.69322 15.5117 6.18164 14.9092 6.18164C14.3066 6.18164 13.8182 5.69322 13.8182 5.09073C13.8182 4.48824 14.3066 3.99982 14.9092 3.99982Z" fill="white"/>
</svg>
